<svg id="eohncy5ikFK1" xmlns="http://www.w3.org/2000/svg" xmlns:xlink="http://www.w3.org/1999/xlink" viewBox="0 0 20 24" shape-rendering="geometricPrecision" text-rendering="geometricPrecision"><path id="eohncy5ikFK2" d="M15.53492,24.996589C14.28393,25.014769,13.04832,24.649419,12.21702,23.920969C11.38572,23.192509,10.75468,22.020609,10.20477,19.983889C9.77983,18.410039,9.35138,16.455169,9.17858,15.647919C9.47414,16.978309,10.59564,21.481199,12.5787,23.244419C14.39902,24.862929,19.33402,23.954659,19.48001,23.934869C19.490549,23.934869,16.76469,24.978719,15.53491,24.996599L15.53492,24.996589ZM9.17859,15.647919C9.1255,15.408959,9.09906,15.271309,9.09906,15.271309C9.09906,15.271309,9.12777,15.410509,9.17859,15.647919ZM9.09906,15.271309C9.09722,15.271749,9.09937,15.271379,9.09906,15.271309C9.09906,15.271309,9.09691,15.271679,9.09906,15.271309ZM12.98274,14.307139C14.23227,14.244019,15.48021,14.564739,16.33715,15.262849C17.19409,15.960969,17.86683,17.109439,18.48956,19.125079C19.1123,21.140719,19.48001,23.934869,19.48001,23.934869C19.48001,23.934869,18.41247,17.946489,16,15.951959C14.1227,14.399899,9.24425,15.246279,9.09906,15.271309C9.20602,15.245629,11.7544,14.369179,12.98274,14.307129L12.98274,14.307139Z" transform="matrix(1.303368 -0.409087 0.672491 2.142585 -21.837403 -24.252615)" fill="rgb(25,197,161)" stroke="rgb(25,197,161)" stroke-width="0.128" stroke-miterlimit="1"/></svg>